<svg xmlns="http://www.w3.org/2000/svg" xmlns:xlink="http://www.w3.org/1999/xlink" width="1396" zoomAndPan="magnify" viewBox="52 548 1396 390" height="390" preserveAspectRatio="xMidYMid meet" version="1.0"><defs><g/><clipPath id="71a57f25a8"><path d="M 60.132812 555.210938 L 750 555.210938 L 750 925.726562 L 60.132812 925.726562 Z M 60.132812 555.210938 " clip-rule="nonzero"/></clipPath><clipPath id="b97d199dd0"><path d="M 750 586.710938 L 750 894.226562 C 750 902.582031 746.679688 910.59375 740.773438 916.5 C 734.867188 922.40625 726.855469 925.726562 718.5 925.726562 L 91.632812 925.726562 C 83.277344 925.726562 75.265625 922.40625 69.359375 916.5 C 63.449219 910.59375 60.132812 902.582031 60.132812 894.226562 L 60.132812 586.710938 C 60.132812 578.359375 63.449219 570.34375 69.359375 564.4375 C 75.265625 558.53125 83.277344 555.210938 91.632812 555.210938 L 718.5 555.210938 C 726.855469 555.210938 734.867188 558.53125 740.773438 564.4375 C 746.679688 570.34375 750 578.359375 750 586.710938 Z M 750 586.710938 " clip-rule="nonzero"/></clipPath><clipPath id="62078deaaf"><path d="M 0.132812 0.210938 L 690 0.210938 L 690 370.726562 L 0.132812 370.726562 Z M 0.132812 0.210938 " clip-rule="nonzero"/></clipPath><clipPath id="047d7296d3"><path d="M 690 31.710938 L 690 339.226562 C 690 347.582031 686.679688 355.59375 680.773438 361.5 C 674.867188 367.40625 666.855469 370.726562 658.5 370.726562 L 31.632812 370.726562 C 23.277344 370.726562 15.265625 367.40625 9.359375 361.5 C 3.449219 355.59375 0.132812 347.582031 0.132812 339.226562 L 0.132812 31.710938 C 0.132812 23.359375 3.449219 15.34375 9.359375 9.4375 C 15.265625 3.53125 23.277344 0.210938 31.632812 0.210938 L 658.5 0.210938 C 666.855469 0.210938 674.867188 3.53125 680.773438 9.4375 C 686.679688 15.34375 690 23.359375 690 31.710938 Z M 690 31.710938 " clip-rule="nonzero"/></clipPath><clipPath id="7d190d5344"><rect x="0" width="690" y="0" height="371"/></clipPath><clipPath id="cc1a7fdc80"><path d="M 750 555.210938 L 1440 555.210938 L 1440 925.734375 L 750 925.734375 Z M 750 555.210938 " clip-rule="nonzero"/></clipPath><clipPath id="00a8e8e550"><path d="M 781.5 555.210938 L 1408.367188 555.210938 C 1425.765625 555.210938 1439.867188 569.316406 1439.867188 586.710938 L 1439.867188 894.234375 C 1439.867188 911.632812 1425.765625 925.734375 1408.367188 925.734375 L 781.5 925.734375 C 764.101562 925.734375 750 911.632812 750 894.234375 L 750 586.710938 C 750 569.316406 764.101562 555.210938 781.5 555.210938 Z M 781.5 555.210938 " clip-rule="nonzero"/></clipPath><clipPath id="326512766f"><path d="M 0 0.210938 L 690 0.210938 L 690 370.734375 L 0 370.734375 Z M 0 0.210938 " clip-rule="nonzero"/></clipPath><clipPath id="709dd4c3ab"><path d="M 31.5 0.210938 L 658.367188 0.210938 C 675.765625 0.210938 689.867188 14.316406 689.867188 31.710938 L 689.867188 339.234375 C 689.867188 356.632812 675.765625 370.734375 658.367188 370.734375 L 31.5 370.734375 C 14.101562 370.734375 0 356.632812 0 339.234375 L 0 31.710938 C 0 14.316406 14.101562 0.210938 31.5 0.210938 Z M 31.5 0.210938 " clip-rule="nonzero"/></clipPath><clipPath id="0c518a2f0b"><rect x="0" width="690" y="0" height="371"/></clipPath></defs><g clip-path="url(#71a57f25a8)"><g clip-path="url(#b97d199dd0)"><g transform="matrix(1, 0, 0, 1, 60, 555)"><g clip-path="url(#7d190d5344)"><g clip-path="url(#62078deaaf)"><g clip-path="url(#047d7296d3)"><path fill="#6d6d6d" d="M 0.132812 0.210938 L 690.503906 0.210938 L 690.503906 370.726562 L 0.132812 370.726562 Z M 0.132812 0.210938 " fill-opacity="1" fill-rule="nonzero"/></g></g></g></g></g></g><g fill="#11dddd" fill-opacity="1"><g transform="translate(137.39239, 927.118868)"><g><path d="M 188.015625 -57.3125 C 211.222656 -57.3125 230.144531 -62.128906 244.78125 -71.765625 C 259.425781 -81.410156 270.140625 -94.269531 276.921875 -110.34375 C 283.710938 -126.414062 287.109375 -144.269531 287.109375 -163.90625 C 287.109375 -183.539062 283.710938 -201.394531 276.921875 -217.46875 C 270.140625 -233.539062 259.425781 -246.394531 244.78125 -256.03125 C 230.144531 -265.675781 211.222656 -270.5 188.015625 -270.5 C 164.796875 -270.5 145.863281 -265.675781 131.21875 -256.03125 C 116.582031 -246.394531 105.875 -233.539062 99.09375 -217.46875 C 92.3125 -201.394531 88.921875 -183.539062 88.921875 -163.90625 C 88.921875 -144.269531 92.3125 -126.414062 99.09375 -110.34375 C 105.875 -94.269531 116.582031 -81.410156 131.21875 -71.765625 C 145.863281 -62.128906 164.796875 -57.3125 188.015625 -57.3125 Z M 188.015625 2.671875 C 153.734375 2.671875 124.359375 -4.820312 99.890625 -19.8125 C 75.429688 -34.8125 56.773438 -54.898438 43.921875 -80.078125 C 31.066406 -105.253906 24.640625 -133.195312 24.640625 -163.90625 C 24.640625 -194.613281 31.066406 -222.554688 43.921875 -247.734375 C 56.773438 -272.910156 75.429688 -292.992188 99.890625 -307.984375 C 124.359375 -322.984375 153.734375 -330.484375 188.015625 -330.484375 C 222.648438 -330.484375 252.109375 -322.984375 276.390625 -307.984375 C 300.671875 -292.992188 319.238281 -272.910156 332.09375 -247.734375 C 344.945312 -222.554688 351.375 -194.613281 351.375 -163.90625 C 351.375 -133.195312 344.945312 -105.253906 332.09375 -80.078125 C 319.238281 -54.898438 300.671875 -34.8125 276.390625 -19.8125 C 252.109375 -4.820312 222.648438 2.671875 188.015625 2.671875 Z M 188.015625 2.671875 "/></g></g></g><g fill="#11dddd" fill-opacity="1"><g transform="translate(455.5583, 927.118868)"><g><path d="M 294.609375 -133.90625 L 294.609375 0 L 230.328125 0 L 230.328125 -133.90625 C 230.328125 -156.40625 224.878906 -174.796875 213.984375 -189.078125 C 203.097656 -203.359375 186.226562 -210.5 163.375 -210.5 C 140.519531 -210.5 123.644531 -203.359375 112.75 -189.078125 C 101.863281 -174.796875 96.421875 -156.40625 96.421875 -133.90625 L 96.421875 0 L 32.140625 0 L 32.140625 -133.90625 C 32.140625 -159.257812 37.316406 -182.289062 47.671875 -203 C 58.023438 -223.71875 73.019531 -240.144531 92.65625 -252.28125 C 112.300781 -264.425781 135.875 -270.5 163.375 -270.5 C 191.226562 -270.5 214.882812 -264.425781 234.34375 -252.28125 C 253.800781 -240.144531 268.707031 -223.71875 279.0625 -203 C 289.425781 -182.289062 294.609375 -159.257812 294.609375 -133.90625 Z M 294.609375 -133.90625 "/></g></g></g><g clip-path="url(#cc1a7fdc80)"><g clip-path="url(#00a8e8e550)"><g transform="matrix(1, 0, 0, 1, 750, 555)"><g clip-path="url(#0c518a2f0b)"><g clip-path="url(#326512766f)"><g clip-path="url(#709dd4c3ab)"><path fill="#11dddd" d="M 0 0.210938 L 690.386719 0.210938 L 690.386719 370.734375 L 0 370.734375 Z M 0 0.210938 " fill-opacity="1" fill-rule="nonzero"/></g></g></g></g></g></g><g fill="#6d6d6d" fill-opacity="1"><g transform="translate(717.528837, 927.170228)"><g><path d="M 294.609375 -133.90625 L 294.609375 0 L 230.328125 0 L 230.328125 -133.90625 C 230.328125 -156.40625 224.878906 -174.796875 213.984375 -189.078125 C 203.097656 -203.359375 186.226562 -210.5 163.375 -210.5 C 140.519531 -210.5 123.644531 -203.359375 112.75 -189.078125 C 101.863281 -174.796875 96.421875 -156.40625 96.421875 -133.90625 L 96.421875 0 L 32.140625 0 L 32.140625 -133.90625 C 32.140625 -159.257812 37.316406 -182.289062 47.671875 -203 C 58.023438 -223.71875 73.019531 -240.144531 92.65625 -252.28125 C 112.300781 -264.425781 135.875 -270.5 163.375 -270.5 C 191.226562 -270.5 214.882812 -264.425781 234.34375 -252.28125 C 253.800781 -240.144531 268.707031 -223.71875 279.0625 -203 C 289.425781 -182.289062 294.609375 -159.257812 294.609375 -133.90625 Z M 294.609375 -133.90625 "/></g></g></g><g fill="#6d6d6d" fill-opacity="1"><g transform="translate(982.131417, 927.170228)"><g><path d="M 188.015625 -57.3125 C 211.222656 -57.3125 230.144531 -62.128906 244.78125 -71.765625 C 259.425781 -81.410156 270.140625 -94.269531 276.921875 -110.34375 C 283.710938 -126.414062 287.109375 -144.269531 287.109375 -163.90625 C 287.109375 -183.539062 283.710938 -201.394531 276.921875 -217.46875 C 270.140625 -233.539062 259.425781 -246.394531 244.78125 -256.03125 C 230.144531 -265.675781 211.222656 -270.5 188.015625 -270.5 C 164.796875 -270.5 145.863281 -265.675781 131.21875 -256.03125 C 116.582031 -246.394531 105.875 -233.539062 99.09375 -217.46875 C 92.3125 -201.394531 88.921875 -183.539062 88.921875 -163.90625 C 88.921875 -144.269531 92.3125 -126.414062 99.09375 -110.34375 C 105.875 -94.269531 116.582031 -81.410156 131.21875 -71.765625 C 145.863281 -62.128906 164.796875 -57.3125 188.015625 -57.3125 Z M 188.015625 2.671875 C 153.734375 2.671875 124.359375 -4.820312 99.890625 -19.8125 C 75.429688 -34.8125 56.773438 -54.898438 43.921875 -80.078125 C 31.066406 -105.253906 24.640625 -133.195312 24.640625 -163.90625 C 24.640625 -194.613281 31.066406 -222.554688 43.921875 -247.734375 C 56.773438 -272.910156 75.429688 -292.992188 99.890625 -307.984375 C 124.359375 -322.984375 153.734375 -330.484375 188.015625 -330.484375 C 222.648438 -330.484375 252.109375 -322.984375 276.390625 -307.984375 C 300.671875 -292.992188 319.238281 -272.910156 332.09375 -247.734375 C 344.945312 -222.554688 351.375 -194.613281 351.375 -163.90625 C 351.375 -133.195312 344.945312 -105.253906 332.09375 -80.078125 C 319.238281 -54.898438 300.671875 -34.8125 276.390625 -19.8125 C 252.109375 -4.820312 222.648438 2.671875 188.015625 2.671875 Z M 188.015625 2.671875 "/></g></g></g></svg>